grf
version=1
nRows=9
nColumns=37
inDegrees=no
endheader
time	ground_force_1_vx	ground_force_1_vy	ground_force_1_vz	ground_force_1_px	ground_force_1_py	ground_force_1_pz	ground_moment_1_mx	ground_moment_1_my	ground_moment_1_mz	ground_force_2_vx	ground_force_2_vy	ground_force_2_vz	ground_force_2_px	ground_force_2_py	ground_force_2_pz	ground_moment_2_mx	ground_moment_2_my	ground_moment_2_mz	ground_force_3_vx	ground_force_3_vy	ground_force_3_vz	ground_force_3_px	ground_force_3_py	ground_force_3_pz	ground_moment_3_mx	ground_moment_3_my	ground_moment_3_mz	ground_force_4_vx	ground_force_4_vy	ground_force_4_vz	ground_force_4_px	ground_force_4_py	ground_force_4_pz	ground_moment_4_mx	ground_moment_4_my	ground_moment_4_mz
      0.00000000	      0.00000000	     -0.00000000	      0.00000000	      0.00000000	      0.00000000	      0.00000000	      0.00000000	      0.00000000	      0.00000000	     -0.35684204	     13.80563354	   -334.76397705	   -281.84727353	  -1001.06159125	      0.00000000	      0.00000000	      0.00000000	   1915.62357572	     -3.81456501	    -14.39643445	   -391.49053955	   -266.53224307	   -773.46040543	      0.00000000	      0.00000000	      0.00000000	  -2762.18323809	      0.00000000	     -0.00000000	      0.00000000	      0.00000000	      0.00000000	      0.00000000	      0.00000000	      0.00000000	      0.00000000
      0.01000000	      0.00000000	     -0.00000000	      0.00000000	      0.00000000	      0.00000000	      0.00000000	      0.00000000	      0.00000000	      0.00000000	     -0.51967245	     13.99035740	   -333.02401733	   -282.98542327	  -1000.20745151	      0.00000000	      0.00000000	     -0.00000000	   1876.09611588	     -3.89678365	    -14.31780876	   -393.17025757	   -266.57074628	   -773.43878133	      0.00000000	      0.00000000	      0.00000000	  -2685.17458245	      0.00000000	     -0.00000000	      0.00000000	      0.00000000	      0.00000000	      0.00000000	      0.00000000	      0.00000000	      0.00000000
      0.02000000	      0.00000000	     -0.00000000	      0.00000000	      0.00000000	      0.00000000	      0.00000000	      0.00000000	      0.00000000	      0.00000000	     -0.51999676	     13.45869064	   -332.67132568	   -282.64532766	  -1000.15998148	      0.00000000	      0.00000000	      0.00000000	   2018.11083578	     -3.81456502	    -14.56990972	   -394.21725464	   -266.64181612	   -773.29877187	      0.00000000	      0.00000000	     -0.00000000	  -2669.97422536	      0.00000000	     -0.00000000	      0.00000000	      0.00000000	      0.00000000	      0.00000000	      0.00000000	      0.00000000	      0.00000000
      0.03000000	      0.00000000	     -0.00000000	      0.00000000	      0.00000000	      0.00000000	      0.00000000	      0.00000000	      0.00000000	      0.00000000	     -0.09218651	     13.73797512	   -331.35345459	   -282.69345198	   -999.93678879	      0.00000000	      0.00000000	      0.00000000	   1996.57167601	     -3.64645797	    -14.32356898	   -396.27490234	   -266.21834802	   -773.04162963	      0.00000000	     -0.00000000	      0.00000000	  -2468.73925320	      0.00000000	     -0.00000000	      0.00000000	      0.00000000	      0.00000000	      0.00000000	      0.00000000	      0.00000000	      0.00000000
      0.04000000	      0.00000000	     -0.00000000	      0.00000000	      0.00000000	      0.00000000	      0.00000000	      0.00000000	      0.00000000	      0.00000000	     -0.36266348	     13.37828445	   -332.33081055	   -282.61221971	  -1002.39881592	      0.00000000	      0.00000000	      0.00000000	   1877.14342324	     -3.62802400	    -15.19738261	   -397.69567871	   -267.04143959	   -773.01388872	      0.00000000	      0.00000000	     -0.00000000	  -2516.28431931	      0.00000000	     -0.00000000	      0.00000000	      0.00000000	      0.00000000	      0.00000000	      0.00000000	      0.00000000	      0.00000000
      0.05000000	      0.00000000	     -0.00000000	      0.00000000	      0.00000000	      0.00000000	      0.00000000	      0.00000000	      0.00000000	      0.00000000	      0.33974004	     13.70614719	   -332.30850220	   -283.70448500	  -1001.55205428	      0.00000000	      0.00000000	      0.00000000	   2128.78557288	     -3.27039805	    -15.36204786	   -399.35916138	   -267.25925882	   -771.72794209	      0.00000000	      0.00000000	      0.00000000	  -2630.72929034	      0.00000000	     -0.00000000	      0.00000000	      0.00000000	      0.00000000	      0.00000000	      0.00000000	      0.00000000	      0.00000000
      0.06000000	      0.00000000	     -0.00000000	      0.00000000	      0.00000000	      0.00000000	      0.00000000	      0.00000000	      0.00000000	      0.00000000	      0.18396631	     13.63695145	   -331.98913574	   -283.39029620	  -1002.18672185	      0.00000000	      0.00000000	     -0.00000000	   2038.18345404	     -2.93615210	    -15.02622865	   -399.40661621	   -268.21308596	   -772.59694117	      0.00000000	      0.00000000	     -0.00000000	  -2672.77287839	      0.00000000	     -0.00000000	      0.00000000	      0.00000000	      0.00000000	      0.00000000	      0.00000000	      0.00000000	      0.00000000
      0.07000000	      0.00000000	     -0.00000000	      0.00000000	      0.00000000	      0.00000000	      0.00000000	      0.00000000	      0.00000000	      0.00000000	      0.36225808	     13.63695145	   -330.28759766	   -283.78996613	   -999.42086900	      0.00000000	      0.00000000	      0.00000000	   2136.10722794	     -2.68403138	    -15.11431194	   -398.37084961	   -267.10752119	   -774.11484807	      0.00000000	     -0.00000000	     -0.00000000	  -2732.30364677	      0.00000000	     -0.00000000	      0.00000000	      0.00000000	      0.00000000	      0.00000000	      0.00000000	      0.00000000	      0.00000000
      0.08000000	      0.00000000	     -0.00000000	      0.00000000	      0.00000000	      0.00000000	      0.00000000	      0.00000000	      0.00000000	      0.00000000	      0.71368408	     13.80728912	   -331.29324341	   -283.09557061	  -1000.67870479	      0.00000000	      0.00000000	      0.00000000	   2134.78113591	     -3.18526758	    -15.10576983	   -399.75677490	   -267.83589273	   -772.37364340	      0.00000000	     -0.00000000	     -0.00000000	  -2588.88481135	      0.00000000	     -0.00000000	      0.00000000	      0.00000000	      0.00000000	      0.00000000	      0.00000000	      0.00000000	      0.00000000
